<svg xmlns="http://www.w3.org/2000/svg" viewBox="0 0 1600 1000">
  <defs>
    <linearGradient id="wall" x1="0" y1="0" x2="1" y2="1"><stop stop-color="#b06a3f"/><stop offset="1" stop-color="#3d241d"/></linearGradient>
    <linearGradient id="wood" x1="0" y1="0" x2="0" y2="1"><stop stop-color="#8b4b2c"/><stop offset="1" stop-color="#3b211a"/></linearGradient>
    <radialGradient id="light"><stop stop-color="#ffe4b4" stop-opacity=".9"/><stop offset="1" stop-color="#f1a052" stop-opacity="0"/></radialGradient>
    <filter id="grain"><feTurbulence baseFrequency=".7" numOctaves="2" seed="5" type="fractalNoise"/><feColorMatrix type="saturate" values="0"/><feComponentTransfer><feFuncA type="table" tableValues="0 .09"/></feComponentTransfer></filter>
    <filter id="shadow"><feDropShadow dx="0" dy="18" stdDeviation="16" flood-opacity=".28"/></filter>
  </defs>
  <rect width="1600" height="1000" fill="url(#wall)"/>
  <circle cx="1250" cy="150" r="430" fill="url(#light)"/>
  <rect x="800" y="120" width="620" height="390" rx="12" fill="#5a3426" opacity=".65"/>
  <g fill="#d59859" filter="url(#shadow)">
    <ellipse cx="930" cy="270" rx="105" ry="52"/><ellipse cx="1160" cy="280" rx="125" ry="58"/><ellipse cx="1320" cy="390" rx="85" ry="45"/>
  </g>
  <g fill="none" stroke="#f2c58d" stroke-width="10" opacity=".55">
    <path d="M850 270h160M1080 280h160M1260 390h120"/>
    <path d="M910 230l40 80M1140 230l40 95M1300 350l40 80"/>
  </g>
  <rect x="650" y="560" width="850" height="310" rx="30" fill="url(#wood)" filter="url(#shadow)"/>
  <g transform="translate(760 470)" filter="url(#shadow)">
    <ellipse cx="130" cy="160" rx="130" ry="65" fill="#e5a85d"/>
    <path d="M35 160c22-88 170-88 190 0" fill="#f4c67e"/>
    <path d="M70 138c24-32 48-48 66-55M130 130c25-31 50-44 70-48" fill="none" stroke="#a65a2e" stroke-width="10" stroke-linecap="round"/>
  </g>
  <g transform="translate(1080 485)" filter="url(#shadow)">
    <circle cx="145" cy="145" r="110" fill="#f2bd78"/>
    <path d="M60 140c35-58 135-72 176 0M85 176c40 22 84 22 125 0" fill="none" stroke="#b96631" stroke-width="12" stroke-linecap="round"/>
  </g>
  <g transform="translate(550 645)">
    <path d="M0 92c75-120 280-120 360 0z" fill="#f1bd7a"/>
    <path d="M35 85c58-80 220-80 290 0" fill="none" stroke="#d78b45" stroke-width="16" stroke-linecap="round"/>
  </g>
  <rect width="1600" height="1000" filter="url(#grain)" opacity=".45"/>
</svg>
